HIERARCHY
ROOT Hips
{
  OFFSET 0.190252 16.352 0.0151073
  CHANNELS 6 Xposition Yposition Zposition Zrotation Xrotation Yrotation
  JOINT LHipJoint
  {
    OFFSET 0 0 0
    CHANNELS 6 Xposition Yposition Zposition Zrotation Xrotation Yrotation
    JOINT LeftUpLeg
    {
      OFFSET 1.36306 -1.79463 0.83929
      CHANNELS 6 Xposition Yposition Zposition Zrotation Xrotation Yrotation
      JOINT LeftLeg
      {
        OFFSET 2.44811 -6.72613 0
        CHANNELS 6 Xposition Yposition Zposition Zrotation Xrotation Yrotation
        JOINT LeftFoot
        {
          OFFSET 2.5622 -7.03959 0
          CHANNELS 6 Xposition Yposition Zposition Zrotation Xrotation Yrotation
          JOINT LeftToeBase
          {
            OFFSET 0.15764 -0.43311 2.32255
            CHANNELS 6 Xposition Yposition Zposition Zrotation Xrotation Yrotation
            End Site
            {
              OFFSET 0 0 0
            }
          }
        }
      }
    }
  }
  JOINT RHipJoint
  {
    OFFSET 0 0 0
    CHANNELS 6 Xposition Yposition Zposition Zrotation Xrotation Yrotation
    JOINT RightUpLeg
    {
      OFFSET -1.30552 -1.79463 0.83929
      CHANNELS 6 Xposition Yposition Zposition Zrotation Xrotation Yrotation
      JOINT RightLeg
      {
        OFFSET -2.54253 -6.98555 0
        CHANNELS 6 Xposition Yposition Zposition Zrotation Xrotation Yrotation
        JOINT RightFoot
        {
          OFFSET -2.56826 -7.05623 0
          CHANNELS 6 Xposition Yposition Zposition Zrotation Xrotation Yrotation
          JOINT RightToeBase
          {
            OFFSET -0.16473 -0.45259 2.36315
            CHANNELS 6 Xposition Yposition Zposition Zrotation Xrotation Yrotation
            End Site
            {
              OFFSET 0 0 0
            }
          }
        }
      }
    }
  }
  JOINT LowerBack
  {
    OFFSET 0 0 0
    CHANNELS 6 Xposition Yposition Zposition Zrotation Xrotation Yrotation
    JOINT Spine
    {
      OFFSET 0.02827 2.03559 -0.19338
      CHANNELS 6 Xposition Yposition Zposition Zrotation Xrotation Yrotation
      JOINT Spine1
      {
        OFFSET 0.05672 2.04885 -0.04275
        CHANNELS 6 Xposition Yposition Zposition Zrotation Xrotation Yrotation
        JOINT Neck
        {
          OFFSET 0 0 0
          CHANNELS 6 Xposition Yposition Zposition Zrotation Xrotation Yrotation
          JOINT Neck1
          {
            OFFSET -0.05417 1.74624 0.17202
            CHANNELS 6 Xposition Yposition Zposition Zrotation Xrotation Yrotation
            JOINT Head
            {
              OFFSET 0.10407 1.76136 -0.12397
              CHANNELS 6 Xposition Yposition Zposition Zrotation Xrotation Yrotation
              End Site
              {
                OFFSET 0 0 0
              }
            }
          }
        }
        JOINT LeftShoulder
        {
          OFFSET 0 0 0
          CHANNELS 6 Xposition Yposition Zposition Zrotation Xrotation Yrotation
          JOINT LeftArm
          {
            OFFSET 3.36241 1.20089 -0.31121
            CHANNELS 6 Xposition Yposition Zposition Zrotation Xrotation Yrotation
            JOINT LeftForeArm
            {
              OFFSET 4.983 0 0
              CHANNELS 6 Xposition Yposition Zposition Zrotation Xrotation Yrotation
              JOINT LeftHand
              {
                OFFSET 3.48356 0 0
                CHANNELS 6 Xposition Yposition Zposition Zrotation Xrotation Yrotation
                JOINT LeftFingerBase
                {
                  OFFSET 0 0 0
                  CHANNELS 6 Xposition Yposition Zposition Zrotation Xrotation Yrotation
                  JOINT LeftHandIndex1
                  {
                    OFFSET 0.71526 0 0
                    CHANNELS 6 Xposition Yposition Zposition Zrotation Xrotation Yrotation
                    End Site
                    {
                      OFFSET 0 0 0
                    }
                  }
                }
                JOINT LThumb
                {
                  OFFSET 0 0 0
                  CHANNELS 6 Xposition Yposition Zposition Zrotation Xrotation Yrotation
                  End Site
                  {
                    OFFSET 0 0 0
                  }
                }
              }
            }
          }
        }
        JOINT RightShoulder
        {
          OFFSET 0 0 0
          CHANNELS 6 Xposition Yposition Zposition Zrotation Xrotation Yrotation
          JOINT RightArm
          {
            OFFSET -3.1366 1.37405 -0.40465
            CHANNELS 6 Xposition Yposition Zposition Zrotation Xrotation Yrotation
            JOINT RightForeArm
            {
              OFFSET -5.2419 0 0
              CHANNELS 6 Xposition Yposition Zposition Zrotation Xrotation Yrotation
              JOINT RightHand
              {
                OFFSET -3.44417 0 0
                CHANNELS 6 Xposition Yposition Zposition Zrotation Xrotation Yrotation
                JOINT RightFingerBase
                {
                  OFFSET 0 0 0
                  CHANNELS 6 Xposition Yposition Zposition Zrotation Xrotation Yrotation
                  JOINT RightHandIndex1
                  {
                    OFFSET -0.62253 0 0
                    CHANNELS 6 Xposition Yposition Zposition Zrotation Xrotation Yrotation
                    End Site
                    {
                      OFFSET 0 0 0
                    }
                  }
                }
                JOINT RThumb
                {
                  OFFSET 0 0 0
                  CHANNELS 6 Xposition Yposition Zposition Zrotation Xrotation Yrotation
                  End Site
                  {
                    OFFSET 0 0 0
                  }
                }
              }
            }
          }
        }
      }
    }
  }
}
MOTION
Frames:	7
Frame Time:	0.00833333
0.190252 16.352 0.0151073 -0.0111396 8.63947 -1.34464 0 0 0 -0.299681 5.35791 18.0368 1.36306 -1.79463 0.83929 -13.6817 -44.5604 -16.2631 2.44811 -6.72613 1.77636e-015 -17.9191 42.3614 71.9575 2.5622 -7.03959 0 -1.44772 -2.57864 -5.66082 0.15764 -0.43311 2.32255 1.49557e-006 1.55143e-006 -2.24161e-006 0 0 0 -8.85582 0.425549 -20.6242 -1.30552 -1.79463 0.83929 49.3314 -22.5245 35.2802 -2.54253 -6.98555 0 -2.70307 48.3984 -26.3206 -2.56826 -7.05623 -4.44089e-016 5.47049 -1.90693 6.76143 -0.16473 -0.45259 2.36315 -2.78299e-015 -1.59028e-015 1.59028e-015 0 0 0 -1.93281 -2.12354 0.12108 0.02827 2.03559 -0.19338 6.90675 33.0211 2.45816 0.05672 2.04885 -0.04275 3.92838 9.18834 3.19782 0 0 0 -1.00716 -9.92043 -0.0272231 -0.05417 1.74624 0.17202 2.4377 26.901 -1.27781 0.10407 1.76136 -0.12397 3.97569e-016 0 -9.93923e-016 0 0 0 1.37082 -0.485362 33.8984 3.36241 1.20089 -0.31121 -75.8016 8.97069 -4.51047 4.983 3.55271e-015 0 -43.1055 11.3715 -41.4975 3.48356 0 8.88178e-016 0.908915 -0.277021 -0.110866 0 0 0 -0.121017 -1.53997e-006 -1.14815 0.71526 0 -4.44089e-016 -1.98785e-015 -6.36111e-015 -1.59028e-015 0 0 0 -3.97569e-016 3.18055e-015 -7.95139e-016 0 0 0 -13.8327 -3.67342 -21.4536 -3.1366 1.37405 -0.40465 55.1706 15.9485 44.2008 -5.2419 -1.77636e-015 8.88178e-016 6.94099 22.8115 65.2359 -3.44417 0 0 -0.638155 0.0149511 2.48903 0 0 0 0.388198 2.45089e-006 2.4941 -0.62253 -8.88178e-016 0 -5.1334e-007 -4.00714e-007 5.52029e-007 0 0 0 -3.18055e-015 -1.59028e-015 -6.36111e-015 
0.212992 16.4191 0.217522 0.0580576 8.10608 -0.868244 0 0 0 -0.299681 5.35791 18.0368 1.36306 -1.79463 0.83929 -13.3621 -43.8103 -15.7042 2.44811 -6.72613 0 -17.1026 40.6373 69.3354 2.5622 -7.03959 0 -1.99783 -1.21913 -5.13897 0.15764 -0.43311 2.32255 0.0129654 0.230521 0.0657685 0 0 0 -8.85582 0.425549 -20.6242 -1.30552 -1.79463 0.83929 47.9373 -21.319 33.8127 -2.54253 -6.98555 0 -3.09292 47.5456 -25.9825 -2.56826 -7.05623 4.44089e-016 5.69663 -2.40829 6.98763 -0.16473 -0.45259 2.36315 -0.00760464 -0.0783843 0.0253572 0 0 0 -1.93281 -2.12354 0.12108 0.02827 2.03559 -0.19338 6.94324 32.4863 2.6076 0.05672 2.04885 -0.04275 3.6075 9.03113 3.3278 0 0 0 -1.08878 -10.026 -0.0227501 -0.05417 1.74624 0.17202 2.34575 26.7962 -1.25204 0.10407 1.76136 -0.12397 0.95923 1.20158 -0.0926392 0 0 0 1.9235 -0.803134 33.9413 3.36241 1.20089 -0.31121 -73.2916 12.0445 -4.09552 4.983 0 1.77636e-015 -44.8076 11.62 -42.0088 3.48356 0 4.44089e-016 1.09075 -0.264575 -0.15019 0 0 0 -0.121017 -1.53997e-006 -1.14815 0.71526 8.88178e-016 -4.44089e-016 -1.19271e-015 3.18055e-015 -1.59028e-015 0 0 0 3.97569e-016 0 7.95139e-016 0 0 0 -14.4035 -3.95699 -21.7241 -3.1366 1.37405 -0.40465 53.7155 16.6532 43.0458 -5.2419 0 0 7.20031 23.4283 65.0982 -3.44417 8.88178e-016 0 -2.24163 0.246251 3.23155 0 0 0 0.388198 2.45089e-006 2.4941 -0.62253 0 1.77636e-015 -5.1334e-007 -4.00714e-007 5.52029e-007 0 0 0 3.18055e-015 1.59028e-015 1.59028e-015 
0.235448 16.4858 0.417463 0.132026 7.58123 -0.401287 0 0 0 -0.299681 5.35791 18.0368 1.36306 -1.79463 0.83929 -13.0499 -43.0982 -15.171 2.44811 -6.72613 0 -16.5288 38.766 66.9757 2.5622 -7.03959 8.88178e-016 -2.61643 0.16073 -4.61504 0.15764 -0.43311 2.32255 0.0262753 0.477553 0.136253 0 0 0 -8.85582 0.425549 -20.6242 -1.30552 -1.79463 0.83929 46.6549 -20.0812 32.4062 -2.54253 -6.98555 8.88178e-016 -3.44966 46.7228 -25.6831 -2.56826 -7.05623 -2.22045e-016 5.91338 -2.92057 7.21737 -0.16473 -0.45259 2.36315 -0.0133908 -0.140172 0.0454026 0 0 0 -1.93281 -2.12354 0.12108 0.02827 2.03559 -0.19338 6.98736 31.9628 2.75672 0.05672 2.04885 -0.04275 3.28539 8.87702 3.45989 0 0 0 -1.16813 -10.1344 -0.0175894 -0.05417 1.74624 0.17202 2.25592 26.6887 -1.22585 0.10407 1.76136 -0.12397 1.92014 2.39023 -0.173387 0 0 0 2.45715 -1.1177 33.9863 3.36241 1.20089 -0.31121 -70.8928 15.1201 -3.64223 4.983 -3.55271e-015 -3.55271e-015 -46.5138 11.7814 -42.4675 3.48356 0 4.44089e-016 1.26372 -0.252062 -0.190404 0 0 0 -0.121017 -1.53997e-006 -1.14815 0.71526 8.88178e-016 -4.44089e-016 -7.95139e-016 9.54166e-015 -1.59028e-015 0 0 0 -3.97569e-016 -3.18055e-015 7.95139e-016 0 0 0 -14.9781 -4.23381 -21.9908 -3.1366 1.37405 -0.40465 52.2821 17.3581 41.8954 -5.2419 0 0 7.45983 24.0359 64.947 -3.44417 8.88178e-016 0 -3.83913 0.487843 4.0092 0 0 0 0.388198 2.45089e-006 2.4941 -0.62253 0 0 -5.1334e-007 -4.00714e-007 5.52029e-007 0 0 0 1.32417e-031 4.77083e-015 -1.59028e-015 
0.258471 16.5531 0.622352 0.223305 7.03738 0.0806622 0 0 0 -0.299681 5.35791 18.0368 1.36306 -1.79463 0.83929 -12.783 -42.2972 -14.6356 2.44811 -6.72613 1.77636e-015 -16.0761 36.8362 64.8855 2.5622 -7.03959 0 -3.1721 1.50649 -4.10469 0.15764 -0.43311 2.32255 0.0373055 0.691557 0.197323 0 0 0 -8.85582 0.425549 -20.6242 -1.30552 -1.79463 0.83929 45.3613 -18.7611 31.0007 -2.54253 -6.98555 0 -3.82978 45.8354 -25.3562 -2.56826 -7.05623 0 6.16085 -3.40941 7.4422 -0.16473 -0.45259 2.36315 -0.0226058 -0.235153 0.0760722 0 0 0 -1.93281 -2.12354 0.12108 0.02827 2.03559 -0.19338 7.026 31.4164 2.90192 0.05672 2.04885 -0.04275 2.96789 8.7167 3.5875 0 0 0 -1.25197 -10.2371 -0.0137956 -0.05417 1.74624 0.17202 2.16216 26.5868 -1.20065 0.10407 1.76136 -0.12397 2.88937 3.6047 -0.278407 0 0 0 3.03033 -1.43773 34.0309 3.36241 1.20089 -0.31121 -68.4081 18.1993 -3.26898 4.983 0 1.77636e-015 -48.1967 12.0999 -43.0366 3.48356 0 -4.44089e-016 1.45446 -0.239683 -0.228837 0 0 0 -0.121017 -1.53997e-006 -1.14815 0.71526 8.88178e-016 0 -3.97569e-016 3.18055e-015 -7.95139e-016 0 0 0 3.97569e-016 0 7.95139e-016 0 0 0 -15.5531 -4.52061 -22.2674 -3.1366 1.37405 -0.40465 50.875 18.0845 40.7291 -5.2419 0 0 7.72181 24.6767 64.8505 -3.44417 0 -1.77636e-015 -5.46655 0.707595 4.71685 0 0 0 0.388198 2.45089e-006 2.4941 -0.62253 0 -1.77636e-015 -5.1334e-007 -4.00714e-007 5.52029e-007 0 0 0 0 0 -7.95139e-016 
0.282914 16.6222 0.839608 0.34632 6.4469 0.601806 0 0 0 -0.299681 5.35791 18.0368 1.36306 -1.79463 0.83929 -12.6078 -41.2797 -14.078 2.44811 -6.72613 1.77636e-015 -15.6053 34.9356 63.0436 2.5622 -7.03959 0 -3.53001 2.76348 -3.62335 0.15764 -0.43311 2.32255 0.0438283 0.822998 0.234841 0 0 0 -8.85582 0.425549 -20.6242 -1.30552 -1.79463 0.83929 43.9452 -17.3006 29.5422 -2.54253 -6.98555 -8.88178e-016 -4.28078 44.7877 -24.9449 -2.56826 -7.05623 -4.44089e-016 6.47834 -3.84056 7.65347 -0.16473 -0.45259 2.36315 -0.0402571 -0.413118 0.133304 0 0 0 -1.93281 -2.12354 0.12108 0.02827 2.03559 -0.19338 7.04626 30.8131 3.03956 0.05672 2.04885 -0.04275 2.66087 8.54086 3.70408 0 0 0 -1.34711 -10.3257 -0.0134267 -0.05417 1.74624 0.17202 2.05838 26.4989 -1.1778 0.10407 1.76136 -0.12397 3.87693 4.88372 -0.444097 0 0 0 3.70159 -1.77189 34.0726 3.36241 1.20089 -0.31121 -65.6134 21.2831 -3.10279 4.983 0 0 -49.8134 12.8049 -43.8878 3.48356 0 0 1.68962 -0.227639 -0.262818 0 0 0 -0.121017 -1.53997e-006 -1.14815 0.71526 -8.88178e-016 4.44089e-016 7.95139e-016 3.18055e-015 -7.95139e-016 0 0 0 3.97569e-016 6.36111e-015 7.95139e-016 0 0 0 -16.1253 -4.83385 -22.5678 -3.1366 1.37405 -0.40465 49.5013 18.8546 39.5265 -5.2419 -1.77636e-015 0 7.98558 25.3931 64.8826 -3.44417 -1.77636e-015 -1.77636e-015 -7.15669 0.873688 5.24927 0 0 0 0.388198 2.45089e-006 2.4941 -0.62253 0 0 -5.1334e-007 -4.00714e-007 5.52029e-007 0 0 0 -3.18055e-015 1.59028e-015 -8.74653e-015 
0.309007 16.6958 1.07284 0.506566 5.79121 1.17806 0 0 0 -0.299681 5.35791 18.0368 1.36306 -1.79463 0.83929 -12.6157 -40.0162 -13.5208 2.44811 -6.72613 0 -15.0088 33.0358 61.3997 2.5622 -7.03959 -8.88178e-016 -3.5278 3.96623 -3.1575 0.15764 -0.43311 2.32255 0.037726 0.846204 0.239265 0 0 0 -8.85582 0.425549 -20.6242 -1.30552 -1.79463 0.83929 42.3156 -15.5861 27.9577 -2.54253 -6.98555 0 -4.8639 43.3805 -24.4035 -2.56826 -7.05623 -2.22045e-016 6.90468 -4.32965 7.91015 -0.16473 -0.45259 2.36315 -0.0609451 -0.639849 0.206762 0 0 0 -1.93281 -2.12354 0.12108 0.02827 2.03559 -0.19338 7.05002 30.1329 3.17179 0.05672 2.04885 -0.04275 2.36179 8.34107 3.80958 0 0 0 -1.45414 -10.4006 -0.0150774 -0.05417 1.74624 0.17202 1.94317 26.4246 -1.15557 0.10407 1.76136 -0.12397 4.90352 6.25343 -0.670426 0 0 0 4.51625 -2.12656 34.1131 3.36241 1.20089 -0.31121 -62.3005 24.4771 -3.21094 4.983 0 0 -51.331 13.9259 -45.1377 3.48356 -4.44089e-016 4.44089e-016 1.9621 -0.218189 -0.281143 0 0 0 -0.121017 -1.53997e-006 -1.14815 0.71526 8.88178e-016 -4.44089e-016 -7.95139e-016 6.36111e-015 -2.38542e-015 0 0 0 1.19271e-015 -6.36111e-015 -7.95139e-016 0 0 0 -16.696 -5.18891 -22.8934 -3.1366 1.37405 -0.40465 48.1407 19.6644 38.2735 -5.2419 1.77636e-015 1.77636e-015 8.19514 26.227 65.0928 -3.44417 0 8.88178e-016 -9.00124 0.961207 5.48619 0 0 0 0.388198 2.45089e-006 2.4941 -0.62253 -1.77636e-015 3.55271e-015 -5.1334e-007 -4.00714e-007 5.52029e-007 0 0 0 6.36111e-015 4.77083e-015 -6.36111e-015 
0.336295 16.7725 1.31754 0.700236 5.08893 1.79323 0 0 0 -0.299681 5.35791 18.0368 1.36306 -1.79463 0.83929 -12.7676 -38.5725 -12.9768 2.44811 -6.72613 -1.77636e-015 -14.3434 31.1303 59.9309 2.5622 -7.03959 4.44089e-016 -3.27557 5.12682 -2.70335 0.15764 -0.43311 2.32255 0.0229888 0.791751 0.220054 0 0 0 -8.85582 0.425549 -20.6242 -1.30552 -1.79463 0.83929 40.5876 -13.666 26.3124 -2.54253 -6.98555 0 -5.51091 41.7185 -23.8022 -2.56826 -7.05623 -2.22045e-016 7.4107 -4.8531 8.1967 -0.16473 -0.45259 2.36315 -0.0837497 -0.904621 0.292819 0 0 0 -1.93281 -2.12354 0.12108 0.02827 2.03559 -0.19338 7.04281 29.3977 3.29956 0.05672 2.04885 -0.04275 2.06892 8.1243 3.90694 0 0 0 -1.56987 -10.4653 -0.0183041 -0.05417 1.74624 0.17202 1.81967 26.3605 -1.13391 0.10407 1.76136 -0.12397 5.96456 7.6877 -0.942411 0 0 0 5.4332 -2.49577 34.1532 3.36241 1.20089 -0.31121 -58.5777 27.7426 -3.53693 4.983 0 1.77636e-015 -52.7223 15.2937 -46.7083 3.48356 0 0 2.26242 -0.210491 -0.288734 0 0 0 -0.121017 -1.53997e-006 -1.14815 0.71526 -4.44089e-016 0 3.97569e-016 6.36111e-015 -7.95139e-016 0 0 0 -1.98785e-016 3.18055e-015 -1.59028e-015 0 0 0 -17.2676 -5.57268 -23.2381 -3.1366 1.37405 -0.40465 46.8023 20.5054 36.982 -5.2419 0 0 8.35897 27.141 65.4493 -3.44417 0 0 -10.9511 0.992966 5.51437 0 0 0 0.388198 2.45089e-006 2.4941 -0.62253 0 1.77636e-015 -5.1334e-007 -4.00714e-007 5.52029e-007 0 0 0 8.82781e-031 7.95139e-015 -6.36111e-015 
